<svg width="16" height="16" viewBox="0 0 16 16" fill="none" xmlns="http://www.w3.org/2000/svg">
<rect width="16" height="16" rx="8" fill="#EC8000"/>
<path d="M10.8484 8.15273C10.8438 7.35352 11.2059 6.75117 11.9371 6.30703C11.5281 5.72109 10.9094 5.39883 10.0938 5.33672C9.32148 5.27578 8.47656 5.78672 8.16719 5.78672C7.84023 5.78672 7.09258 5.35781 6.5043 5.35781C5.29023 5.37656 4 6.32578 4 8.25703C4 8.82773 4.1043 9.41719 4.31289 10.0242C4.5918 10.8234 5.59727 12.7816 6.64609 12.75C7.19453 12.7371 7.58242 12.3609 8.29609 12.3609C8.98867 12.3609 9.34727 12.75 9.95898 12.75C11.0172 12.7348 11.9266 10.9547 12.1914 10.1531C10.7723 9.48399 10.8484 8.19375 10.8484 8.15273ZM9.6168 4.57852C10.2109 3.87305 10.157 3.23086 10.1395 3C9.61445 3.03047 9.00742 3.35742 8.66172 3.75938C8.28086 4.19063 8.05703 4.72383 8.10508 5.325C8.67227 5.36836 9.19023 5.07656 9.6168 4.57852Z" fill="white"/>
</svg>
