<svg width="12" height="12" viewBox="0 0 12 12" fill="none" xmlns="http://www.w3.org/2000/svg">
<path d="M7.0875 8.87463L7.08871 8.8755C7.44155 9.13033 7.93344 9.0531 8.19063 8.7036L8.19236 8.70122L8.87462 7.76251L8.8755 7.76129C9.12645 7.41383 9.06132 6.91842 8.70086 6.65738C8.70058 6.65717 8.70029 6.65696 8.7 6.65676L7.37097 5.6898V2.6129C7.37097 2.17708 7.01647 1.82258 6.58065 1.82258H5.41935C4.98353 1.82258 4.62903 2.17708 4.62903 2.6129V6.68468C4.62903 6.93521 4.74778 7.17112 4.94966 7.3209L4.94964 7.32092L4.95363 7.32382L7.0875 8.87463ZM0.5 6C0.5 2.96163 2.96163 0.5 6 0.5C9.03837 0.5 11.5 2.96163 11.5 6C11.5 9.03837 9.03837 11.5 6 11.5C2.96163 11.5 0.5 9.03837 0.5 6Z" stroke="#004FDA"/>
</svg>
