<svg width="16" height="16" viewBox="0 0 16 16" fill="none" xmlns="http://www.w3.org/2000/svg">
<rect y="0.321289" width="15.3574" height="15.3574" rx="7.67868" fill="#0560FA"/>
<path d="M7.67773 5.76012V2.24072" stroke="white" stroke-width="0.959835" stroke-linecap="round" stroke-linejoin="round"/>
<path d="M7.67773 13.7588V10.2394" stroke="white" stroke-width="0.959835" stroke-linecap="round" stroke-linejoin="round"/>
<path d="M6.39844 2.24072H8.958" stroke="white" stroke-width="0.959835" stroke-linecap="round" stroke-linejoin="round"/>
<path d="M6.39844 13.7588H8.958" stroke="white" stroke-width="0.959835" stroke-linecap="round" stroke-linejoin="round"/>
<path d="M5.73924 6.88006L2.69336 5.12036" stroke="white" stroke-width="0.959835" stroke-linecap="round" stroke-linejoin="round"/>
<path d="M12.6631 10.8793L9.61719 9.11963" stroke="white" stroke-width="0.959835" stroke-linecap="round" stroke-linejoin="round"/>
<path d="M2.05273 6.22732L3.33251 4.01331" stroke="white" stroke-width="0.959835" stroke-linecap="round" stroke-linejoin="round"/>
<path d="M12.0234 11.9864L13.3032 9.77234" stroke="white" stroke-width="0.959835" stroke-linecap="round" stroke-linejoin="round"/>
<path d="M9.91868 7.99975C9.91868 8.40928 9.8099 8.78681 9.61794 9.11956C9.2276 9.79144 8.50453 10.2394 7.67907 10.2394C6.85361 10.2394 6.13053 9.79144 5.7402 9.11956C5.54823 8.78681 5.43945 8.40928 5.43945 7.99975C5.43945 7.59022 5.54823 7.21268 5.7402 6.87994C6.13053 6.20805 6.85361 5.76013 7.67907 5.76013C8.50453 5.76013 9.2276 6.20805 9.61794 6.87994C9.8099 7.21268 9.91868 7.59022 9.91868 7.99975Z" stroke="white" stroke-width="0.959835" stroke-linecap="round" stroke-linejoin="round"/>
<path d="M12.6631 5.12036L9.61719 6.88006" stroke="white" stroke-width="0.959835" stroke-linecap="round" stroke-linejoin="round"/>
<path d="M5.73924 9.11963L2.69336 10.8793" stroke="white" stroke-width="0.959835" stroke-linecap="round" stroke-linejoin="round"/>
<path d="M13.3032 6.22732L12.0234 4.01331" stroke="white" stroke-width="0.959835" stroke-linecap="round" stroke-linejoin="round"/>
<path d="M3.33251 11.9864L2.05273 9.77234" stroke="white" stroke-width="0.959835" stroke-linecap="round" stroke-linejoin="round"/>
</svg>
